<?xml version="1.0" encoding="utf-8"?>
<!-- Generator: Adobe Illustrator 25.2.1, SVG Export Plug-In . SVG Version: 6.00 Build 0)  -->
<svg version="1.1"
	 id="Layer_1" xmlns:cc="http://creativecommons.org/ns#" xmlns:dc="http://purl.org/dc/elements/1.1/" xmlns:inkscape="http://www.inkscape.org/namespaces/inkscape" xmlns:rdf="http://www.w3.org/1999/02/22-rdf-syntax-ns#" xmlns:sodipodi="http://sodipodi.sourceforge.net/DTD/sodipodi-0.dtd" xmlns:svg="http://www.w3.org/2000/svg"
	 xmlns="http://www.w3.org/2000/svg" xmlns:xlink="http://www.w3.org/1999/xlink" x="0px" y="0px" viewBox="0 0 100 125"
	 style="enable-background:new 0 0 100 125;" xml:space="preserve">
<style type="text/css">
	.st0{fill:#FA5FCE;}
</style>
<g transform="translate(0,-952.36218)">
	<path class="st0" d="M35.5,958.4c-4,0-7.9,1.5-10.9,4.5c-6,6-6,15.9,0,21.9l22.9,23c0.8,0.8,2,0.8,2.8,0c0,0,0,0,0,0l22.9-23
		c6-6,6.1-15.8,0-21.9c-0.1-0.1-0.2-0.2-0.3-0.2c-6.1-5.8-15.6-5.7-21.6,0.2l-2.5,2.5l-2.5-2.5C43.4,959.9,39.4,958.4,35.5,958.4z
		 M35.5,962.3c2.9,0,5.8,1.1,8.1,3.4l3.9,3.9c0.8,0.8,2,0.8,2.8,0c0,0,0,0,0,0l3.9-3.9c4.5-4.5,11.7-4.5,16.2,0s4.5,11.7,0,16.2
		l-21.5,21.5L27.4,982c-4.5-4.5-4.5-11.8,0-16.3C29.6,963.4,32.6,962.3,35.5,962.3z M13.4,979.2c-0.6,0-1.3,0.2-1.9,0.4
		c-1.2,0.6-2.2,2-2.3,3.4l-2.2,25.6c-0.3,3.2,0.1,7.7,3.6,11.2l14,14c1.2,1.2,1.7,2,1.8,3.2l0.1,6.6c0,1.1,0.9,2,2,2
		c1.1,0,2-0.9,2-2c0,0,0,0,0,0l-0.1-6.6c0-2.5-1.4-4.5-2.9-6l-14-14c-2.4-2.4-2.6-5.4-2.4-8.1l2.2-25.6c0-0.1,0-0.1,0-0.2
		c0,0,0.4-0.1,0.9,0c1,0.3,2.2,1.3,2.5,2.5l2.2,10.5c0.2,1.1,1.2,1.8,2.3,1.6c1.1-0.2,1.8-1.2,1.6-2.3c0-0.1,0-0.1,0-0.2L20.5,985
		c-0.6-2.9-2.9-4.8-5.3-5.5C14.7,979.3,14.1,979.2,13.4,979.2z M86.9,979.2c-0.6,0-1.2,0.1-1.8,0.2c-2.4,0.7-4.6,2.6-5.3,5.5
		l-2.3,10.5c-0.3,1.1,0.4,2.2,1.4,2.4s2.2-0.4,2.4-1.4c0-0.1,0-0.1,0-0.2l2.3-10.5c0.3-1.2,1.5-2.2,2.5-2.5c0.5-0.1,0.8,0,0.9,0
		c0,0,0,0,0,0.2l2.2,25.6c0.2,2.7-0.1,5.7-2.4,8.1l-14,14c-1.5,1.5-2.9,3.5-2.9,6l-0.1,6.6c0,1.1,0.9,2,2,2s2-0.9,2-2c0,0,0,0,0,0
		l0.1-6.6c0-1.2,0.5-2,1.8-3.2l14-14c3.5-3.5,3.8-8,3.6-11.2l-2.2-25.6c-0.1-1.5-1.1-2.9-2.3-3.4C88.1,979.4,87.5,979.3,86.9,979.2z
		 M21.1,1000.7c-2.9,0.4-4.7,2.7-5.4,5.1c-0.7,2.3-0.6,5,1.4,6.8l0,0l0.2,0.1l11.1,11.1c0.7,0.9,2,1,2.8,0.3c0.9-0.7,1-2,0.3-2.8
		c-0.1-0.1-0.2-0.2-0.3-0.3l-11.2-11.2c0,0-0.1-0.1-0.2-0.1c-0.3-0.2-0.6-1.4-0.2-2.7c0.3-0.9,0.8-1.5,1.4-1.9l8.5,8.5
		c0.4,0.3,0.8,0.5,1.3,0.6c6.7,0.3,11.1,4,11.4,8.8l1.6,21.8c0.1,1.1,1,1.9,2.1,1.9c1.1-0.1,1.9-1,1.9-2.1c0,0,0,0,0,0l-1.6-21.8
		c-0.5-6.8-6.6-11.6-14.3-12.3l-9.1-9.1C22.3,1000.9,21.7,1000.7,21.1,1000.7z M78.6,1000.7c-0.4,0.1-0.8,0.3-1.1,0.6l-9.1,9.1
		c-7.7,0.7-13.8,5.5-14.3,12.3l-1.6,21.8c-0.2,1.1,0.5,2.1,1.6,2.3c1.1,0.2,2.1-0.5,2.3-1.6c0-0.1,0-0.3,0-0.4l1.6-21.8
		c0.3-4.8,4.7-8.5,11.4-8.8c0.5,0,1-0.2,1.3-0.6l8.5-8.5c0.6,0.4,1.1,1,1.4,1.9c0.4,1.3,0.1,2.4-0.2,2.7c-0.1,0-0.1,0.1-0.2,0.1
		L69.2,1021c-0.8,0.8-0.8,2,0,2.8c0.8,0.8,2,0.8,2.8,0c0,0,0,0,0.1-0.1l11.1-11.1c0,0,0.1-0.1,0.1-0.1c2-1.7,2.1-4.5,1.4-6.8
		c-0.7-2.3-2.5-4.7-5.4-5.1C79,1000.7,78.8,1000.7,78.6,1000.7z"/>
</g>
</svg>
