<?xml version="1.0" encoding="utf-8"?>
<!-- Generator: Adobe Illustrator 25.2.1, SVG Export Plug-In . SVG Version: 6.00 Build 0)  -->
<svg version="1.1" id="Layer_1" xmlns="http://www.w3.org/2000/svg" xmlns:xlink="http://www.w3.org/1999/xlink" x="0px" y="0px"
	 viewBox="0 0 64 80" style="enable-background:new 0 0 64 80;" xml:space="preserve">
<style type="text/css">
	.st0{fill:#FA5FCE;}
</style>
<g>
	<path class="st0" d="M49,54c0,0.6-0.4,1-1,1s-1-0.4-1-1v-4c0-1.7-1.3-3-3-3s-3,1.3-3,3v10c0,0.6-0.4,1-1,1s-1-0.4-1-1v-6
		c0-1.7-1.3-3-3-3s-3,1.3-3,3v4c0,0.6-0.4,1-1,1s-1-0.4-1-1v-4c0-1.7-1.3-3-3-3s-3,1.3-3,3v6c0,0.6-0.4,1-1,1s-1-0.4-1-1V50
		c0-1.7-1.3-3-3-3s-3,1.3-3,3v2c0,0.6-0.4,1-1,1s-1-0.4-1-1V42h-2v10c0,1.7,1.3,3,3,3s3-1.3,3-3v-2c0-0.6,0.4-1,1-1s1,0.4,1,1v10
		c0,1.7,1.3,3,3,3s3-1.3,3-3v-6c0-0.6,0.4-1,1-1s1,0.4,1,1v4c0,1.7,1.3,3,3,3s3-1.3,3-3v-4c0-0.6,0.4-1,1-1s1,0.4,1,1v6
		c0,1.7,1.3,3,3,3s3-1.3,3-3V50c0-0.6,0.4-1,1-1s1,0.4,1,1v4c0,1.7,1.3,3,3,3s3-1.3,3-3v-5h-2V54z"/>
	<path class="st0" d="M31,38.9V41h2v-2h4v-5c0-2.8-2.2-5-5-5c-1.7,0-3-1.3-3-3v-3h3c1.7,0,3,1.3,3,3v3h2v-3c0-2.4-1.7-4.4-4-4.9V19
		h-2v2h-4v5c0,2.8,2.2,5,5,5c1.7,0,3,1.3,3,3v3h-3c-1.7,0-3-1.3-3-3v-3h-2v3C27,36.4,28.7,38.4,31,38.9z"/>
	<path class="st0" d="M32,49c10.5,0,19-8.5,19-19c0-9.6-7.3-17.7-16.7-18.8c-0.2-1.8-1.1-3.5-2.6-4.5c-0.8-0.5-1-1.6-0.6-2.4L32.6,1
		H31c-1.7,0-3.4,0.7-4.7,1.8L25.7,1H25c-1.9,0-3.1,0.7-3.8,1.3c-0.5-0.4-1.2-0.7-1.9-0.9l-4.1-0.8l1.3,2.7c0.3,0.6,0.5,1.3,0.5,2
		c0,0.9-0.3,1.8-0.8,2.5l-0.4,0.5c-0.6,0.9-0.9,1.9-0.9,2.9c0,1.4,0.5,2.6,1.5,3.6l0.3,0.3c0.1,0.1,0.2,0.3,0.2,0.6
		c0,0.3-0.2,0.6-0.5,0.7l-1.2,0.4c-0.2-0.3-0.3-0.7-0.5-1l-2-3l-0.9,2.8c-0.4,1.2-1.2,2.3-2.2,3.1l-0.2,0.2C7.9,20,7,21.7,7,23.6
		c0,3.1,2,5.8,4.9,6.8l1.1,0.4C13.4,40.9,21.8,49,32,49z M46.9,31h2c-0.1,1.6-0.4,3.1-0.9,4.6l-1.8-0.8C46.6,33.6,46.9,32.3,46.9,31
		z M46.9,29c-0.1-1.3-0.3-2.6-0.8-3.8l1.8-0.8c0.5,1.4,0.8,3,0.9,4.6L46.9,29L46.9,29z M45.4,36.6l1.8,0.8c-0.7,1.4-1.6,2.7-2.6,3.9
		l-1.4-1.4C44.1,38.9,44.8,37.8,45.4,36.6z M41.9,41.3l1.4,1.4c-1.2,1-2.5,1.9-3.9,2.6l-0.8-1.8C39.8,42.8,40.9,42.1,41.9,41.3z
		 M36.8,44.2l0.8,1.8c-1.4,0.5-3,0.8-4.6,0.9v-2C34.3,44.9,35.6,44.6,36.8,44.2z M31,46.9c-1.6-0.1-3.1-0.4-4.6-0.9l0.8-1.9
		c1.2,0.4,2.5,0.7,3.8,0.8L31,46.9L31,46.9z M24.6,45.3c-1.4-0.7-2.7-1.6-3.9-2.6l1.4-1.4c1,0.8,2.1,1.6,3.2,2.2L24.6,45.3z
		 M19.3,41.3c-1-1.2-1.9-2.5-2.6-3.9l1.9-0.8c0.6,1.2,1.3,2.2,2.2,3.2L19.3,41.3z M18.4,31c-1.9,0-3.4-1.5-3.4-3.4
		c0-1.2,0.7-2.4,1.7-3l3.3-1.9c0.2,1.3,0.9,2.5,2,3.2c0.6,0.4,1,1.1,1,1.8v0c0,0.7-0.2,1.3-0.6,1.8c-0.6,0.9-1.6,1.5-2.7,1.5H18.4z
		 M17.3,32.9c0.1,0.7,0.3,1.3,0.5,1.9L16,35.6c-0.4-1.2-0.7-2.4-0.8-3.7C15.7,32.3,16.5,32.7,17.3,32.9z M47.3,22.6l-1.8,0.8
		c-0.6-1.2-1.3-2.2-2.2-3.2l1.4-1.4C45.7,19.9,46.6,21.2,47.3,22.6z M33.3,15.1c0.4-0.6,0.6-1.2,0.8-1.9c1.2,0.1,2.4,0.4,3.5,0.8
		l-0.8,1.9C35.7,15.4,34.5,15.2,33.3,15.1z M39.4,14.7c1.4,0.7,2.7,1.6,3.9,2.6l-1.4,1.4c-1-0.9-2-1.6-3.2-2.2L39.4,14.7z M9,23.6
		c0-1.2,0.6-2.3,1.5-3.1l0.2-0.2c1.1-0.8,1.9-1.8,2.5-3c0.5,0.9,0.8,1.8,0.8,2.8h2c0-0.5-0.1-0.9-0.1-1.3l1.3-0.4
		c1.1-0.4,1.9-1.4,1.9-2.6c0-0.7-0.3-1.4-0.8-2l-0.3-0.3c-0.6-0.6-0.9-1.4-0.9-2.2c0-0.6,0.2-1.3,0.5-1.8L17.9,9
		C18.6,7.9,19,6.6,19,5.3c0-0.7-0.1-1.3-0.3-2l0.2,0C20.1,3.6,21,4.7,21,6h2c0-0.8-0.2-1.5-0.6-2.2c0.4-0.3,1-0.7,1.8-0.8l0.5,1.5
		l-0.6,0.8l1.6,1.2L27,5c0.6-0.8,1.3-1.3,2.2-1.7c-0.8,1.7-0.3,3.8,1.3,4.9c1.1,0.8,1.8,2.1,1.8,3.4c0,1.6-0.9,3.1-2.4,3.8l-3.3,1.6
		l0.9,1.8l3.3-1.6c0.2-0.1,0.3-0.2,0.5-0.3c0.2,0,0.5,0,0.7,0c7.2,0,13,5.8,13,13s-5.8,13-13,13c-6,0-11.3-4.2-12.6-10h0.3
		c1.8,0,3.4-0.9,4.4-2.4c0.6-0.9,0.9-1.9,0.9-2.9v0c0-1.4-0.7-2.7-1.9-3.5c-0.7-0.5-1.1-1.3-1.1-2.1v-2.8l-6.3,3.6
		c-1.7,1-2.7,2.8-2.7,4.7c0,0.4,0,0.7,0.1,1.1l-0.6-0.2C10.4,27.8,9,25.8,9,23.6z"/>
	<path class="st0" d="M26,11.6c0,0.6-0.2,1.2-0.7,1.7l-1,1l1.4,1.4l1-1c0.8-0.8,1.3-1.9,1.3-3.1c0-2-1.4-3.7-3.3-4.2L23.2,7L22.8,9
		l1.5,0.4C25.3,9.6,26,10.5,26,11.6z"/>
</g>
</svg>
