<?xml version="1.0" encoding="utf-8"?>
<!-- Generator: Adobe Illustrator 25.2.1, SVG Export Plug-In . SVG Version: 6.00 Build 0)  -->
<svg version="1.1" id="Layer_1" xmlns="http://www.w3.org/2000/svg" xmlns:xlink="http://www.w3.org/1999/xlink" x="0px" y="0px"
	 viewBox="0 0 24 17.3" style="enable-background:new 0 0 24 17.3;" xml:space="preserve">
<style type="text/css">
	.st0{fill-rule:evenodd;clip-rule:evenodd;fill:#FA5FCE;}
</style>
<path class="st0" d="M21,2.2c-3-2.2-5.8-2.2-5.8-2.2L15,0.3c3.5,1.1,5.1,2.6,5.1,2.6c-2.1-1.2-4.2-1.7-6.2-2C12.4,0.8,11,0.8,9.8,1
	L9.4,1C8.7,1.1,6.9,1.4,4.7,2.3C4,2.7,3.5,2.9,3.5,2.9s1.7-1.6,5.4-2.7L8.7,0c0,0-2.8-0.1-5.8,2.2c0,0-3,5.4-3,12c0,0,1.7,3,6.3,3.1
	c0,0,0.8-0.9,1.4-1.7C5,14.8,4,13.1,4,13.1l0.6,0.3l0.1,0.1l0.1,0l0,0l0.1,0c0.5,0.3,1,0.5,1.5,0.7c0.8,0.3,1.8,0.7,3,0.9
	c1.5,0.3,3.3,0.4,5.3,0c1-0.2,2-0.5,3-0.9c0.7-0.3,1.5-0.7,2.4-1.2c0,0-1,1.7-3.7,2.4c0.6,0.8,1.4,1.7,1.4,1.7
	c4.5-0.1,6.3-3.1,6.3-3.1C24,7.5,21,2.2,21,2.2z M8.2,12.2c-1.2,0-2.1-1-2.1-2.3S7,7.7,8.2,7.7s2.1,1,2.1,2.3
	C10.3,11.2,9.3,12.2,8.2,12.2z M15.7,12.2c-1.2,0-2.1-1-2.1-2.3s0.9-2.3,2.1-2.3s2.1,1,2.1,2.3C17.8,11.2,16.8,12.2,15.7,12.2z"/>
</svg>
