<svg xmlns="http://www.w3.org/2000/svg" viewBox="0 0 160.4536 87.84"><defs><style>.cls-1{fill:#fff;}.cls-2{fill:#2fcdeb;}.cls-3{fill:#eabee6;}.cls-4{fill:#d0c1fe;}.cls-5{fill:#e3dcfe;}.cls-6{fill:#eee7fd;}.cls-7{fill:#d4c7fe;}.cls-8{fill:#faf1f9;}.cls-9{fill:#d6c6fd;}.cls-10{fill:#f9eff9;}.cls-11{fill:#f4ddf3;}.cls-12{fill:#dccefd;}.cls-13{fill:#efcfef;}.cls-14{fill:#e3d7fd;}.cls-15{fill:#edc5e9;}.cls-16{fill:#edc5ea;}.cls-17{fill:#f0d0ed;}.cls-18{fill:#f5dff3;}.cls-19{fill:#b7aefe;}.cls-20{fill:#bbacfe;}.cls-21{fill:#b3aefe;}.cls-22{fill:#b0aefe;}.cls-23{fill:#b5aefe;}.cls-24{fill:#b1aefe;}.cls-25{fill:#acaefe;}.cls-26{fill:#aeaefe;}.cls-27{fill:#aaaffe;}.cls-28{fill:#b9acfe;}.cls-29{fill:#83b7fe;}.cls-30{fill:#c4adfd;}.cls-31{fill:#bcadfe;}.cls-32{fill:#c0adfe;}.cls-33{fill:#beadfe;}.cls-34{fill:#c2adfe;}.cls-35{fill:#c6adfc;}.cls-36{fill:#caacfa;}.cls-37{fill:#c8adfb;}.cls-38{fill:#ccacf8;}.cls-39{fill:#7fb9fe;}.cls-40{fill:#a7aefe;}.cls-41{fill:#d0adf6;}.cls-42{fill:#e3aee7;}.cls-43{fill:#d2adf4;}.cls-44{fill:#6ebdfa;}.cls-45{fill:#e5aee5;}.cls-46{fill:#6abffa;}.cls-47{fill:#6cbffa;}.cls-48{fill:#a5aefe;}.cls-49{fill:#68c0f9;}.cls-50{fill:#a4aefe;}.cls-51{fill:#64c0f8;}.cls-52{fill:#66c0f9;}.cls-53{fill:#62c0f8;}.cls-54{fill:#e5afe4;}.cls-55{fill:#5ec2f6;}.cls-56{fill:#60c2f6;}.cls-57{fill:#a2affe;}.cls-58{fill:#a0affe;}.cls-59{fill:#72bcfc;}.cls-60{fill:#5ac3f5;}.cls-61{fill:#5cc3f5;}.cls-62{fill:#9eb0fe;}.cls-63{fill:#9cb0fe;}.cls-64{fill:#9ab1fe;}.cls-65{fill:#58c3f4;}.cls-66{fill:#99b1fe;}.cls-67{fill:#56c5f4;}.cls-68{fill:#54c5f3;}.cls-69{fill:#ceacf7;}.cls-70{fill:#95b1fe;}.cls-71{fill:#97b1fe;}.cls-72{fill:#7bb9fe;}.cls-73{fill:#79bafd;}.cls-74{fill:#92b3fe;}.cls-75{fill:#77bafd;}.cls-76{fill:#90b3fe;}.cls-77{fill:#51c6f3;}.cls-78{fill:#d4adf3;}.cls-79{fill:#75bcfc;}.cls-80{fill:#4fc6f2;}.cls-81{fill:#70bdfb;}.cls-82{fill:#4dc6f2;}.cls-83{fill:#4bc7f1;}.cls-84{fill:#48c8f1;}.cls-85{fill:#46c9f0;}.cls-86{fill:#44c9f0;}.cls-87{fill:#72bdfb;}.cls-88{fill:#e1afe8;}.cls-89{fill:#e1aee8;}.cls-90{fill:#42c9ef;}.cls-91{fill:#c1aefe;}.cls-92{fill:#ceadf6;}.cls-93{fill:#3fc9ef;}.cls-94{fill:#3ccbed;}.cls-95{fill:#39cbed;}.cls-96{fill:#ddafeb;}.cls-97{fill:#37cbec;}.cls-98{fill:#d8afef;}.cls-99{fill:#d2aef4;}.cls-100{fill:#34ccec;}.cls-101{fill:#dfb0ea;}.cls-102{fill:#d8aeef;}.cls-103{fill:#d0adf5;}.cls-104{fill:#ccadf8;}.cls-105{fill:#daafee;}.cls-106{fill:#c9aefb;}.cls-107{fill:#32cdeb;}.cls-108{fill:#d4aef3;}.cls-109{fill:#dfaee9;}.cls-110{fill:#ceadf7;}.cls-111{fill:#d6aef0;}.cls-112{fill:#dbb0ed;}.cls-113{fill:#dbafed;}.cls-114{fill:#d6adf1;}.cls-115{fill:#c8affc;}.cls-116{fill:#cfaef6;}.cls-117{fill:#d5aff1;}.cls-118{fill:#d4aef1;}.cls-119{fill:#8eb4fe;}.cls-120{fill:#88b6fe;}.cls-121{fill:#93b3fe;}.cls-122{fill:#8cb4fe;}.cls-123{fill:#91b3fe;}.cls-124{fill:#86b6fe;}.cls-125{fill:#7db9fe;}.cls-126{fill:#e6b0e1;}.cls-127{fill:#d5b0f1;}</style></defs><g id="L_F" data-name="L F"><path class="cls-1" d="M.0685,80.7686V28.3619q0-3.51,2.0551-4.9238A9.3463,9.3463,0,0,1,7.5187,22.025a14.8768,14.8768,0,0,1,4.41.6q1.9263.6,2.44.77V67.41H41.5143V80.7686Z" transform="translate(-0.0685 -0.24)"/><path class="cls-1" d="M117.4488,30.16q0-8.1342,8.4776-8.1352h27.3164q3.9389,0,5.6093,1.67a6.5537,6.5537,0,0,1,1.67,4.8384,12.5925,12.5925,0,0,1-.6856,4.2388,15.4049,15.4049,0,0,1-1.1133,2.6118H131.75v9.9336h19.2666q3.939,0,5.6094,1.6689a6.5547,6.5547,0,0,1,1.67,4.8389,12.5651,12.5651,0,0,1-.6855,4.2383,15.4132,15.4132,0,0,1-1.1133,2.6123H131.75V80.7686H117.4488Z" transform="translate(-0.0685 -0.24)"/></g><g id="heart_Image" data-name="heart Image"><path class="cls-2" d="M76.413,87.3955l-.9761.6845H74.2408a9.8093,9.8093,0,0,1-2.8468-2.4425C73.2614,85.6648,74.8071,86.6167,76.413,87.3955Z" transform="translate(-0.0685 -0.24)"/><path class="cls-3" d="M74.0015.24h1.6746q0,.119.0012.2379L74.0021.482,74.0015.478Z" transform="translate(-0.0685 -0.24)"/><path class="cls-4" d="M111.7992,42.48v1.68q-.1173-.0006-.2347.0013l-.0074-.4813-.002-1.2014.0086.0019Q111.6815,42.48,111.7992,42.48Z" transform="translate(-0.0685 -0.24)"/><path class="cls-5" d="M111.7992,45.84q-.11.0045-.22.0128-.0125-.4877-.0247-.9751l.0151.0091a2.0684,2.0684,0,0,1,.23-.0068Z" transform="translate(-0.0685 -0.24)"/><path class="cls-6" d="M111.5849,40.31a1.2,1.2,0,0,0,.2143.01v.72q-.1108,0-.2218-.0068Q111.581,40.6717,111.5849,40.31Z" transform="translate(-0.0685 -0.24)"/><path class="cls-7" d="M111.7992,44.88a2.0954,2.0954,0,0,0-.23.0067q-.0027-.3627-.0051-.7254.1173-.0018.2347-.0013Z" transform="translate(-0.0685 -0.24)"/><path class="cls-8" d="M77.59.24q-.0009.1119.0039.2239l-.4759,0Q77.11.352,77.1115.24Z" transform="translate(-0.0685 -0.24)"/><path class="cls-9" d="M111.7992,42.48q-.1178,0-.2355.0005l.0028-.4828q.1164.0025.2327.0023Z" transform="translate(-0.0685 -0.24)"/><path class="cls-10" d="M72.0834.4638Q72.089.3519,72.0877.24h.4785q.0014.1122-.0063.2244Z" transform="translate(-0.0685 -0.24)"/><path class="cls-11" d="M72.56.4642q.0078-.1119.0064-.2242h.4784q.0009.116-.0039.2318Z" transform="translate(-0.0685 -0.24)"/><path class="cls-12" d="M111.7992,42q-.1164,0-.2327-.0023l.0039-.4809q.1144.0035.2288.0032Z" transform="translate(-0.0685 -0.24)"/><path class="cls-13" d="M73.0407.4717q.0048-.1158.0039-.2317h.4785q0,.1176-.0024.2353Z" transform="translate(-0.0685 -0.24)"/><path class="cls-14" d="M111.7992,41.52q-.1145,0-.2289-.0032l-.0217-.24.029-.2436q.1107.0073.2216.0069Z" transform="translate(-0.0685 -0.24)"/><path class="cls-15" d="M73.5207.4753q.0028-.1178.0024-.2353h.4784V.478Z" transform="translate(-0.0685 -0.24)"/><path class="cls-16" d="M75.6773.4779Q75.676.359,75.6761.24h.4785q0,.1175.0025.235Z" transform="translate(-0.0685 -0.24)"/><path class="cls-17" d="M76.1571.4749Q76.1541.3575,76.1546.24h.4784q-.0009.1154.0045.2307Z" transform="translate(-0.0685 -0.24)"/><path class="cls-18" d="M76.6375.4706Q76.6321.3554,76.633.24h.4785q-.0015.112.0063.224Z" transform="translate(-0.0685 -0.24)"/><path class="cls-19" d="M110.81,49.1908l-.4511,1.2077c-3.4772-1.3622-6.9474-2.743-10.433-4.0836Q73.6688,36.2159,47.4052,26.134q.9795-.4487,1.9589-.8975c.1028.5524.5884.5752.9878.7285Q80.5817,37.5758,110.81,49.1908Z" transform="translate(-0.0685 -0.24)"/><path class="cls-20" d="M111.0871,48.015a.63.63,0,0,1-.0216.2245c-.7151-.2411-1.44-.4569-2.1441-.7271Q85.8628,38.6648,62.8109,29.8c-4.1079-1.5828-8.1843-3.2479-12.2751-4.8753l1.9148-.4574c3.1842,1.2363,6.3584,2.4988,9.5547,3.7022,4.2313,1.593,8.48,3.14,12.7212,4.7063l-.0062-.0041a9,9,0,0,0,1.4941.9381q17.0431,6.5669,34.1076,13.0779C110.9065,47.11,111.17,47.4073,111.0871,48.015Z" transform="translate(-0.0685 -0.24)"/><path class="cls-21" d="M109.9158,51.4034l-.2716.6759a7.2871,7.2871,0,0,1-1.0382-.2364q-24.7168-9.4721-49.43-18.9536c-4.709-1.8024-9.4426-3.54-14.1649-5.3073l1.0026-.7014c2.2374.8021,4.49,1.5631,6.71,2.4131q23.085,8.8415,46.1558,17.72C102.5736,48.4365,106.2377,49.9381,109.9158,51.4034Z" transform="translate(-0.0685 -0.24)"/><path class="cls-22" d="M109.169,53.04q-.3505.62-.7013,1.239c-.8461-1.1563-2.2538-1.2185-3.4241-1.6711Q80.7313,43.2055,56.38,33.9046c-4.34-1.6616-8.7045-3.2577-13.0578-4.8839q.3742-.3558.7487-.7116a8.5542,8.5542,0,0,1,1.1545.272Q64.2724,35.8778,83.3143,43.189,96.2338,48.135,109.169,53.04Z" transform="translate(-0.0685 -0.24)"/><path class="cls-23" d="M109.9158,51.4034c-3.6781-1.4653-7.3422-2.9669-11.0365-4.3894Q75.81,38.131,52.7235,29.2937c-2.2192-.85-4.4723-1.611-6.71-2.4131q.696-.3732,1.3916-.7464Q73.666,36.2228,99.9259,46.3149c3.4856,1.3406,6.9558,2.7214,10.433,4.0836Z" transform="translate(-0.0685 -0.24)"/><path class="cls-24" d="M109.169,53.04Q96.2411,48.116,83.3143,43.189q-19.049-7.2925-38.0892-14.6079a8.5542,8.5542,0,0,0-1.1545-.272q.47-.3636.9409-.727c4.722,1.7672,9.4556,3.5048,14.1646,5.3072q24.7206,9.4619,49.43,18.9536a7.2871,7.2871,0,0,0,1.0382.2364Z" transform="translate(-0.0685 -0.24)"/><path class="cls-25" d="M108.2223,54.7227q-.3674.5886-.7347,1.1775c-.0918-.5912-.6382-.5316-1.0124-.6759q-14.1224-5.4432-28.2539-10.862-18.1364-6.95-36.2793-13.8832.3345-.3709.6693-.7418Q67.78,39.36,92.9505,48.9782C98.0319,50.9173,103.1312,52.8092,108.2223,54.7227Z" transform="translate(-0.0685 -0.24)"/><path class="cls-26" d="M108.2223,54.7227c-5.0911-1.9135-10.19-3.8054-15.2718-5.7445Q67.7758,39.3716,42.6113,29.7373q.3554-.3584.711-.7165C47.6752,30.6469,52.04,32.243,56.38,33.9046q24.3439,9.32,48.6639,18.7036c1.17.4526,2.578.5148,3.4241,1.6711Q108.3452,54.5013,108.2223,54.7227Z" transform="translate(-0.0685 -0.24)"/><path class="cls-27" d="M41.942,30.4791Q60.082,37.42,78.2213,44.3623q14.1325,5.4162,28.2539,10.862c.3742.1443.9206.0847,1.0124.6759q-.2429.3582-.4856.7169a6.0643,6.0643,0,0,0-.9121-.5455c-6.04-2.327-12.0684-4.6836-18.1351-6.9375-2.6412-.9813-5.1474-2.3586-7.9677-2.8354a8.0827,8.0827,0,0,0-6.4647-1.9211L74.587,43.97C70.769,42.51,67.0955,41.1167,63.4313,39.7q-10.998-4.2537-21.9877-8.5287Z" transform="translate(-0.0685 -0.24)"/><path class="cls-28" d="M50.5358,24.9243c4.0908,1.6274,8.1672,3.2925,12.2751,4.8753q23.0462,8.88,46.1105,17.7128c.7041.27,1.429.486,2.1441.7271q-.0133.1272-.0262.2543-.0916.1364-.1839.273-.0225.2121-.0453.424Q80.5812,37.5771,50.3519,25.965c-.3994-.1533-.885-.1761-.9878-.7285Q49.95,25.0807,50.5358,24.9243Z" transform="translate(-0.0685 -0.24)"/><path class="cls-29" d="M38.3452,47.0436q-.1327-.8334-.2652-1.6668l.0541-.0254c2.1532.8055,4.311,1.5991,6.459,2.4185q13.1673,5.0229,26.33,10.0588l1.3743.6814v6.5311L72.0848,64.8q-.0043-.3612-.0086-.7223,0-.3588-.0007-.7177l.0012-.4822,0-.7172,0-.7189.0015-.4832-.1113-1.0721Z" transform="translate(-0.0685 -0.24)"/><path class="cls-30" d="M111.5486,41.2767l.0217.24q-.0018.24-.0038.4809l-.0028.4828-.0085-.0019c-4.6108-1.7452-9.2318-3.4635-13.83-5.2421-6.4092-2.4792-12.8012-5.0034-19.2-7.5083q.471-.3518.9421-.7035c2.086.7653,4.1818,1.5038,6.2556,2.3Q98.6411,36.2866,111.5486,41.2767Z" transform="translate(-0.0685 -0.24)"/><path class="cls-31" d="M111.0871,48.015c.0828-.6077-.1806-.9047-.7651-1.1277Q93.2574,40.3767,76.2144,33.8094a9,9,0,0,1-1.4941-.9381l.7125-.4729q16.9893,6.4816,33.9693,12.987c.73.2808,1.8608.2,1.9292,1.4419Z" transform="translate(-0.0685 -0.24)"/><path class="cls-32" d="M111.5645,44.1613q.0024.3627.0051.7254l-.0149-.0089a2.5273,2.5273,0,0,1-.5874-.0784c-8.314-3.1955-16.6059-6.45-24.9462-9.5744-3.265-1.2231-6.4031-2.8189-9.8485-3.5409l1.1474-.9776c2.1607.8033,4.3261,1.5934,6.4807,2.412Q97.6815,38.3924,111.5571,43.68Z" transform="translate(-0.0685 -0.24)"/><path class="cls-33" d="M76.1726,31.6841c3.4454.722,6.5835,2.3178,9.8485,3.5409,8.34,3.1246,16.6322,6.3789,24.9462,9.5744a2.5273,2.5273,0,0,0,.5874.0784q.0121.4873.0246.975-.1239.487-.248.9743c-.0684-1.2421-1.2-1.1609-1.9292-1.4417q-16.97-6.5323-33.9693-12.987Z" transform="translate(-0.0685 -0.24)"/><path class="cls-34" d="M111.5571,43.68Q97.6794,38.3982,83.8007,33.1185c-2.1546-.8186-4.32-1.6087-6.4807-2.412l1.2051-.9781c6.3991,2.5047,12.7911,5.0289,19.2,7.5081,4.598,1.7786,9.219,3.4969,13.83,5.2421Q111.5561,43.0794,111.5571,43.68Z" transform="translate(-0.0685 -0.24)"/><path class="cls-35" d="M111.5486,41.2767q-12.9121-4.9782-25.826-9.9518c-2.0738-.7964-4.17-1.5349-6.2556-2.3q.6236-.4682,1.2473-.9361c5.893,2.2472,11.7958,4.4691,17.6759,6.75,4.3953,1.7049,8.7613,3.4857,13.14,5.2327q.027.12.0542.2391-.0036.3615-.0074.7229Q111.5632,41.1548,111.5486,41.2767Z" transform="translate(-0.0685 -0.24)"/><path class="cls-36" d="M110.8707,36.95q.2151.8421.43,1.6842L81.8631,27.3462q.5942-.3617,1.1886-.7232c2.4593.4053,4.6567,1.5786,6.9587,2.4315C96.9817,31.6377,103.92,34.3115,110.8707,36.95Z" transform="translate(-0.0685 -0.24)"/><path class="cls-37" d="M81.8631,27.3462l29.4379,11.288q.1149.7185.23,1.4371c-4.3792-1.7471-8.7452-3.5279-13.1405-5.2328-5.88-2.2808-11.7829-4.5027-17.6759-6.75Q81.2888,27.7175,81.8631,27.3462Z" transform="translate(-0.0685 -0.24)"/><path class="cls-38" d="M110.8707,36.95c-6.951-2.6385-13.889-5.3123-20.86-7.8955-2.302-.8529-4.4994-2.0262-6.9587-2.4315a3.17,3.17,0,0,1,1.9141-.9688c4.2613,1.6573,8.5283,3.2989,12.7815,4.9758,4.2841,1.6892,8.5544,3.4135,12.8307,5.1223Z" transform="translate(-0.0685 -0.24)"/><path class="cls-39" d="M38.3452,47.0436,71.9669,59.886c.04.3867.0757.7294.1114,1.0721q-16.1-6.21-32.2083-12.3966c-.27-.1033-.81-.6835-1.0218.1532l-.0576.04Z" transform="translate(-0.0685 -0.24)"/><path class="cls-40" d="M41.4436,31.1708Q52.437,35.4364,63.4313,39.7c3.6642,1.4172,7.3377,2.81,11.1557,4.2706l-1.0646.4076-.957.2414c.0233-.8921-.8113-.7188-1.2436-.8879q-8.2509-3.2286-16.5448-6.3465C50.11,35.6219,45.4267,33.9,40.7507,32.16l.4717-.7213.2354-.2579Z" transform="translate(-0.0685 -0.24)"/><path class="cls-41" d="M108.5035,31.658l1.1493,1.9405c-.5667-.1623-1.1489-.2838-1.6976-.4933q-10.65-4.0653-21.2921-8.1524l.6745-.4358.06-.7574c2.77,1.0679,5.5312,2.1607,8.3128,3.1978C99.967,28.5445,104.2383,30.0931,108.5035,31.658Z" transform="translate(-0.0685 -0.24)"/><path class="cls-42" d="M90.5493,9.8235l.9183,1.9365a24.7305,24.7305,0,0,0-2.6413-1.0566c-1.9346-.5379-3.6411-1.788-5.7281-1.8345A13.9119,13.9119,0,0,0,75.6712,5.75a71.09,71.09,0,0,0-9.1083-3.3587q.9729-.4656,1.9456-.9312c3.3274,1.302,6.6439,2.6335,9.9853,3.8988C82.5012,6.8766,86.53,8.3379,90.5493,9.8235Z" transform="translate(-0.0685 -0.24)"/><path class="cls-43" d="M108.5035,31.658c-4.2652-1.5649-8.5365-3.1135-12.7935-4.7006-2.7816-1.0371-5.5426-2.13-8.3128-3.1978l0-1.44q3.2357,1.2025,6.4715,2.4046,6.4681,2.3939,12.9379,4.7828A5.2179,5.2179,0,0,1,108.5035,31.658Z" transform="translate(-0.0685 -0.24)"/><path class="cls-44" d="M90.7433,73.4325l-.48.4677c-.0919-.5913-.6383-.5318-1.0126-.676-14.235-5.4852-28.4631-10.989-42.73-16.39-1.4749-.5584-2.8288-1.7731-4.6123-1.3372q-.3888-.6159-.7772-1.2319c.7556.2343,1.5259.4284,2.2635.7089q14.7511,5.6078,29.4939,11.2367.6749.3951,1.35.79c3.2279,1.167,6.4956,2.2359,9.67,3.5339C86.1974,71.47,88.6926,71.9339,90.7433,73.4325Z" transform="translate(-0.0685 -0.24)"/><path class="cls-45" d="M90.5493,9.8235C86.53,8.3379,82.5012,6.8766,78.4938,5.359,75.1524,4.0937,71.8359,2.7622,68.5085,1.46l1.8759-.512C72.217,1.587,74.06,2.1976,75.88,2.87,80.377,4.5324,84.8639,6.2231,89.355,7.9023Z" transform="translate(-0.0685 -0.24)"/><path class="cls-46" d="M89.7816,74.3756l-.4786.4693c-.0937-.5589-.583-.5766-.98-.7292Q69.0388,66.7046,49.7487,59.31C47.4863,58.4486,45.32,57.28,42.88,56.9226q-.2451-.3535-.49-.7072c.4169-.4827.8293-.0691,1.1809.0652,13.4933,5.1573,26.9925,10.3,40.4509,15.5472C85.9662,72.5862,88.1459,72.8889,89.7816,74.3756Z" transform="translate(-0.0685 -0.24)"/><path class="cls-47" d="M89.7816,74.3756c-1.6357-1.4867-3.8154-1.7894-5.76-2.5478C70.5629,66.58,57.0637,61.4379,43.57,56.2806c-.3516-.1343-.764-.5479-1.1809-.0652q-.24-.3594-.48-.7187c1.7834-.4358,3.1373.7789,4.6122,1.3373,14.2666,5.4012,28.4947,10.905,42.73,16.39.3743.1442.9207.0847,1.0126.676Z" transform="translate(-0.0685 -0.24)"/><path class="cls-48" d="M40.7507,32.16c4.676,1.74,9.3589,3.4616,14.0263,5.2244q8.2887,3.1306,16.5448,6.3465c.4323.1691,1.2669-.0042,1.2436.888l-1.1946.5042c.2473-.6465-.3138-.6055-.6391-.7307-4.8957-1.8832-9.7878-3.7761-14.6941-5.6311-5.2357-1.98-10.4854-3.9219-15.729-5.88Z" transform="translate(-0.0685 -0.24)"/><path class="cls-49" d="M42.88,56.9226c2.44.3569,4.6067,1.526,6.8691,2.3874q19.3065,7.3515,38.5741,14.8057c.3972.1526.8865.17.98.7292l-.2482.2393a1.7,1.7,0,0,0-.2964-.1906C76.3005,70.11,63.8537,65.2975,51.3724,60.5764c-2.5614-.9689-4.998-2.3415-7.7768-2.69Z" transform="translate(-0.0685 -0.24)"/><path class="cls-50" d="M40.3086,32.8812c5.2436,1.9585,10.4933,3.9008,15.729,5.88,4.9063,1.855,9.7984,3.7479,14.6941,5.6311.3253.1252.8864.0842.6391.7307l-.722.459c-.9936-1.025-2.3943-1.185-3.63-1.6618-8.9985-3.4717-18.0157-6.8943-27.027-10.3324Z" transform="translate(-0.0685 -0.24)"/><path class="cls-51" d="M88.5711,75.56l-.4785.4707a8.124,8.124,0,0,0-.8347-.4328q-19.4455-7.4664-38.9-14.9093c-1.063-.4058-2.0358-1.1952-3.2923-.949l-.741-.9185c.5416-.4177.9722.0461,1.4122.2139q13.7113,5.229,27.41,10.4918C78.2982,71.5114,83.43,73.5472,88.5711,75.56Z" transform="translate(-0.0685 -0.24)"/><path class="cls-52" d="M88.5711,75.56c-5.1409-2.0128-10.2729-4.0486-15.4245-6.0332q-13.6938-5.2753-27.41-10.4918c-.44-.1678-.8706-.6316-1.4122-.2139l-.7287-.935c2.7787.3488,5.2153,1.7214,7.7767,2.69,12.4813,4.7211,24.9281,9.5338,37.386,14.3172a1.7,1.7,0,0,1,.2964.1906Z" transform="translate(-0.0685 -0.24)"/><path class="cls-53" d="M45.0654,59.74c1.2565-.2462,2.2293.5432,3.2923.949q19.46,7.429,38.9,14.9093a8.124,8.124,0,0,1,.8347.4328q-.1822.1611-.3649.3221-7.97-3.03-15.939-6.0613-13.1456-5.0146-26.2871-10.04Z" transform="translate(-0.0685 -0.24)"/><path class="cls-54" d="M89.355,7.9023C84.8639,6.2231,80.377,4.5324,75.88,2.87,74.06,2.1976,72.217,1.587,70.3844.9482q.8493-.2423,1.699-.4843L72.56.4644l.4808.0074.48.0035.4808.0027.0006.004c3.02,1.1859,6.0219,2.4248,9.07,3.5331,1.3343.4852,2.5642,1.3666,4.0827,1.2719A8.14,8.14,0,0,1,89.355,7.9023Z" transform="translate(-0.0685 -0.24)"/><path class="cls-55" d="M87.2434,76.8281l-.4854.4809Q70.0869,70.9318,53.4088,64.5742c-1.7152-.6494-3.3122-1.7385-5.2623-1.6579q-.7523-.7248-1.5043-1.45c3.0489,1.1063,6.1128,2.1721,9.1434,3.3261Q71.5239,70.7857,87.2434,76.8281Z" transform="translate(-0.0685 -0.24)"/><path class="cls-56" d="M87.2434,76.8281Q71.5159,70.8068,55.7856,64.7927c-3.0306-1.154-6.0945-2.22-9.1434-3.3261q-.5706-.6075-1.1405-1.2152,13.1432,5.0207,26.287,10.04,7.9662,3.0389,15.939,6.0613Q87.4859,76.59,87.2434,76.8281Z" transform="translate(-0.0685 -0.24)"/><path class="cls-57" d="M39.9916,33.5882c9.0113,3.4381,18.0285,6.8607,27.027,10.3324,1.2359.4768,2.6366.6368,3.63,1.6619q-.21.141-.4191.2817c-.3785-.1072-.7676-.1865-1.1341-.3257q-14.75-5.602-29.4963-11.2155Z" transform="translate(-0.0685 -0.24)"/><path class="cls-58" d="M39.5993,34.323q14.7474,5.61,29.4963,11.2155c.3665.1392.7556.2185,1.1338.3256q-.3672.3539-.7338.7079-1.5574-.5982-3.115-1.1961Q52.8575,40.2081,39.3341,35.0414Z" transform="translate(-0.0685 -0.24)"/><path class="cls-59" d="M72.0761,64.0773l.0087.7223C63.8737,61.68,55.6769,58.5219,47.4419,55.467c-2.2944-.8512-4.449-2.1435-6.9513-2.395l-.4654-.9827c.3916-.4068.769-.0393,1.0893.0834Q56.6029,58.1048,72.0761,64.0773Z" transform="translate(-0.0685 -0.24)"/><path class="cls-60" d="M86.2659,77.79l-.4887.4785c-10.418-4.0078-20.8242-8.0469-31.2684-11.9845-1.3462-.5075-2.5782-1.5782-4.1891-1.2471l-1.2079-1.18c.3346-.4073.6883-.0754.9733.0338Q68.182,70.8233,86.2659,77.79Z" transform="translate(-0.0685 -0.24)"/><path class="cls-61" d="M86.2659,77.79Q68.1782,70.8335,50.0851,63.8907c-.285-.1092-.6387-.4411-.9733-.0338l-.9653-.9406c1.95-.0806,3.5471,1.0085,5.2623,1.6579Q70.1011,70.894,86.758,77.309,86.5121,77.5495,86.2659,77.79Z" transform="translate(-0.0685 -0.24)"/><path class="cls-62" d="M39.3341,35.0414q13.5233,5.167,27.0465,10.3345,1.5584.5955,3.1148,1.196-.221.2464-.4415.4931c-.9754-.3252-1.9641-.6155-2.9243-.9811Q52.6037,40.9334,39.0859,35.7608Z" transform="translate(-0.0685 -0.24)"/><path class="cls-63" d="M39.0859,35.7608Q52.6068,40.9251,66.13,46.0839c.96.3656,1.9489.6559,2.9239.981q-.2429.3582-.4846.7168c-.2264-.0705-.4573-.1289-.6784-.2133q-14.52-5.5414-29.0374-11.0873Z" transform="translate(-0.0685 -0.24)"/><path class="cls-64" d="M38.8531,36.4811q14.5183,5.5446,29.0374,11.0873c.2211.0844.452.1428.678.2132q-.2605.4979-.52.996c-.1724-.19-.3088-.474-.5223-.5557q-14.4381-5.5267-28.889-11.02Z" transform="translate(-0.0685 -0.24)"/><path class="cls-65" d="M50.32,65.0368c1.6109-.3311,2.8429.74,4.1891,1.2471,10.4442,3.9376,20.85,7.9767,31.2684,11.9845l-.4839.4773C76.5494,75.3782,67.82,71.9724,59.0528,68.6671c-2.5608-.9654-4.9974-2.3245-7.7684-2.6875Z" transform="translate(-0.0685 -0.24)"/><path class="cls-66" d="M38.6369,37.2017q14.4471,5.5033,28.889,11.02c.2135.0817.35.3659.5222.5553q-.1248.3505-.2491.7016c-.05-.495-.4413-.6067-.8187-.7516Q53.36,43.4981,39.7394,38.2671c-.457-.1752-.9589-.4963-1.3576.1242Z" transform="translate(-0.0685 -0.24)"/><path class="cls-67" d="M51.2844,65.98c2.771.363,5.2076,1.7221,7.7684,2.6875,8.7671,3.3053,17.4966,6.7111,26.2405,10.0786l-.7526.7334c-.17-.7518-.9022-.7365-1.4029-.93-7.1467-2.7681-14.2976-5.5262-21.4734-8.2175-3.1247-1.1719-6.1392-2.6587-9.4177-3.4041Z" transform="translate(-0.0685 -0.24)"/><path class="cls-68" d="M52.2467,66.9271c3.2785.7454,6.293,2.2322,9.4177,3.4041,7.1758,2.6913,14.3267,5.4494,21.4734,8.2175.5007.1939,1.2326.1786,1.4029.93l-.4809.4731c-.033-.5492-.5183-.5459-.8623-.6788-6.8412-2.6412-13.6685-5.32-20.5381-7.8848-3.0511-1.1392-5.9816-2.6344-9.208-3.2821Z" transform="translate(-0.0685 -0.24)"/><path class="cls-69" d="M110.578,35.7523c-4.2763-1.7088-8.5466-3.4331-12.8307-5.1223-4.2532-1.6769-8.52-3.3185-12.7815-4.9758q.4965-.2284.9936-.4564l24.1528,9.3584Z" transform="translate(-0.0685 -0.24)"/><path class="cls-70" d="M38.1426,39.84l.2173-1.2q7.0759,2.6493,14.1515,5.2994Q60.1425,46.8042,67.77,49.68q-.1069.49-.214.98a4.37,4.37,0,0,0-.7847-.5154q-13.81-5.3235-27.627-10.6294c-.39-.15-.7-.2129-.7872.3249Z" transform="translate(-0.0685 -0.24)"/><path class="cls-71" d="M67.77,49.68q-7.629-2.8709-15.2583-5.7407Q45.4379,41.2838,38.36,38.64l.0218-.2486c.3988-.6206.9007-.2995,1.3577-.1243Q53.362,43.4915,66.98,48.7272c.3774.1449.7683.2566.8186.7513A.3948.3948,0,0,1,67.77,49.68Z" transform="translate(-0.0685 -0.24)"/><path class="cls-72" d="M72.0767,61.4413q0,.3594,0,.7189c-5.68-2.17-11.3547-4.3545-17.0417-6.5062C49.7239,53.6446,44.4,51.67,39.0813,49.68q-.1452-.4629-.2905-.9256l.0573-.04c5.81,2.2508,11.6135,4.5181,17.4316,6.7475C61.5371,57.4768,66.81,59.45,72.0767,61.4413Z" transform="translate(-0.0685 -0.24)"/><path class="cls-73" d="M39.0813,49.68C44.4,51.67,49.7239,53.6446,55.035,55.654,60.722,57.8057,66.3967,59.99,72.0767,62.16q0,.3586,0,.7172Q56.2034,56.7519,40.3287,50.629c-.3253-.1254-.71-.331-.7885.2814Z" transform="translate(-0.0685 -0.24)"/><path class="cls-74" d="M38.1426,39.84l.2142,0L67.5315,51.12l-.0061.7206L38.106,40.5565Z" transform="translate(-0.0685 -0.24)"/><path class="cls-75" d="M39.54,50.91c.0781-.6124.4632-.4068.7885-.2814q15.8756,6.12,31.7481,12.2484-.0007.241-.0012.4822c-8.8674-3.369-17.721-6.7759-26.6137-10.0766-1.87-.6943-3.6015-1.8927-5.7144-1.8565Z" transform="translate(-0.0685 -0.24)"/><path class="cls-31" d="M74.7265,32.8754c-4.2412-1.5666-8.49-3.1133-12.7212-4.7063-3.1963-1.2034-6.37-2.4659-9.5547-3.7022q.72-.1167,1.4395-.233c2.2362.8011,4.4779,1.5867,6.707,2.4065,4.0879,1.5033,8.1685,3.0267,12.2521,4.5418Z" transform="translate(-0.0685 -0.24)"/><path class="cls-76" d="M38.106,40.5565,67.5254,51.84q.0157.3615.0313.723c-9.34-3.5915-18.6764-7.1925-28.0338-10.7375-.35-.1325-1.1084-1.0937-1.4019.1752l-.0034.959-.196,0Z" transform="translate(-0.0685 -0.24)"/><path class="cls-77" d="M53.4514,68.1065c3.2264.6477,6.1569,2.1429,9.208,3.2821,6.87,2.5649,13.6969,5.2436,20.5381,7.8848.344.1329.8293.13.8623.6788l-.4817.471c-.0363-.551-.5266-.5406-.8694-.673C76.9315,77.519,71.17,75.2451,65.3621,73.0968c-3.6012-1.3321-7.0658-3.0473-10.8235-3.9474Z" transform="translate(-0.0685 -0.24)"/><path class="cls-78" d="M106.8064,29.5073q-6.469-2.3912-12.9379-4.7828Q90.6312,23.5264,87.397,22.32l.0006-1.2,5.27,1.92.1943.8123,2.9061.38,8.8763,3.3589Z" transform="translate(-0.0685 -0.24)"/><path class="cls-33" d="M72.8492,31.1822c-4.0836-1.5151-8.1642-3.0385-12.2521-4.5418-2.2291-.82-4.4708-1.6054-6.707-2.4065l3.1246-.2379,13.1825,5.0353Z" transform="translate(-0.0685 -0.24)"/><path class="cls-79" d="M39.7475,51.4265c2.1129-.0362,3.8439,1.1622,5.7144,1.8565,8.8927,3.3007,17.7463,6.7076,26.6137,10.0766l.0006.7177q-15.478-5.96-30.9617-11.9046c-.32-.1227-.6977-.49-1.0893-.0834Z" transform="translate(-0.0685 -0.24)"/><path class="cls-80" d="M54.5386,69.1494c3.7577.9,7.2223,2.6153,10.8235,3.9474C71.17,75.2451,76.9315,77.519,82.7087,79.75c.3428.1324.8331.122.8694.673l-.4819.4659a5.7589,5.7589,0,0,0-1.0547-.71c-2.5165-.9884-5.0452-1.9458-7.5735-2.9038q-9.475-3.59-18.9534-7.1725Z" transform="translate(-0.0685 -0.24)"/><path class="cls-81" d="M72.8894,66.21Q58.1435,60.5891,43.3952,54.9738c-.7376-.28-1.5079-.4746-2.2635-.7089q-.2-.36-.3985-.72a2.3418,2.3418,0,0,1,.6424.0534c5.9085,2.2386,11.8256,4.4551,17.7139,6.746C63.6013,62.1,68.076,63.951,72.5672,65.76Z" transform="translate(-0.0685 -0.24)"/><path class="cls-82" d="M55.5146,70.1033q9.4768,3.5857,18.9534,7.1725c2.5283.958,5.057,1.9154,7.5735,2.9038a5.7589,5.7589,0,0,1,1.0547.71l-.4839.4678a5.8532,5.8532,0,0,0-1.0613-.7016c-5.9336-2.2923-11.8538-4.6227-17.8266-6.8081-2.2205-.8124-4.2978-2.089-6.7292-2.2843Z" transform="translate(-0.0685 -0.24)"/><path class="cls-83" d="M56.9952,71.5629c2.4314.1953,4.5087,1.4719,6.7292,2.2843,5.9728,2.1854,11.893,4.5158,17.8266,6.8081a5.8579,5.8579,0,0,1,1.0613.7015l-.4812.4735a4.0772,4.0772,0,0,0-.757-.5066C75.3434,79,69.3181,76.6615,63.2658,74.3956c-1.6593-.6212-3.2-1.646-5.061-1.6593Z" transform="translate(-0.0685 -0.24)"/><path class="cls-84" d="M58.2048,72.7363c1.861.0133,3.4017,1.0381,5.061,1.6593C69.3181,76.6615,75.3434,79,81.3741,81.3237a4.0772,4.0772,0,0,1,.757.5066l-.4823.4726a2.4707,2.4707,0,0,0-.4831-.3342C75.7972,79.9,70.4392,77.8025,65.047,75.7977c-1.8535-.6891-3.5858-1.7776-5.6361-1.8824Z" transform="translate(-0.0685 -0.24)"/><path class="cls-85" d="M59.4109,73.9153c2.05.1048,3.7826,1.1933,5.6361,1.8824,5.3922,2.0048,10.75,4.1021,16.1187,6.171a2.4707,2.4707,0,0,1,.4831.3342l-.4819.4724c-4.3052-1.6836-8.5906-3.4206-12.923-5.03-2.5217-.9368-4.8938-2.3273-7.6294-2.6468Z" transform="translate(-0.0685 -0.24)"/><path class="cls-86" d="M60.6145,75.0984c2.7356.32,5.1077,1.71,7.6294,2.6468,4.3324,1.6095,8.6178,3.3465,12.923,5.03l-.7165.703c-.2517-.22-.4678-.5327-.7607-.6468-3.7729-1.4694-7.5311-2.9837-11.3477-4.3306-2.1641-.7637-4.1585-2.0509-6.5232-2.2211Z" transform="translate(-0.0685 -0.24)"/><path class="cls-87" d="M72.5672,65.76C68.076,63.951,63.6013,62.1,59.09,60.344c-5.8883-2.2909-11.8054-4.5074-17.7139-6.746a2.3418,2.3418,0,0,0-.6424-.0534l-.2425-.4727c2.5022.2516,4.6568,1.5439,6.9512,2.3951C55.6769,58.5219,63.8737,61.68,72.0848,64.8l.2123.2417Q72.4323,65.4006,72.5672,65.76Z" transform="translate(-0.0685 -0.24)"/><path class="cls-88" d="M83.0982,8.8689c2.087.0465,3.7935,1.2966,5.7281,1.8345A24.7305,24.7305,0,0,1,91.4676,11.76l.7065,2.1574-6.939-2.634Z" transform="translate(-0.0685 -0.24)"/><path class="cls-89" d="M66.5629,2.3914A71.09,71.09,0,0,1,75.6712,5.75q-2.1514.2349-4.3027.47c-.0678-.495-.4812-.5655-.8472-.7054Q67.71,4.44,64.9026,3.3559Z" transform="translate(-0.0685 -0.24)"/><path class="cls-90" d="M61.8188,76.28c2.3647.17,4.3591,1.4574,6.5232,2.2211,3.8166,1.3469,7.5748,2.8612,11.3477,4.3306.2929.1141.509.4266.7607.6468l-.487.4747a174.0365,174.0365,0,0,0-17.0676-6.6422Z" transform="translate(-0.0685 -0.24)"/><path class="cls-91" d="M70.1972,29.0313,57.0147,23.996C62.15,23.7211,66.3259,25.9751,70.1972,29.0313Z" transform="translate(-0.0685 -0.24)"/><path class="cls-92" d="M110.1122,34.5562,85.9594,25.1978l.7039-.2449q10.6446,4.0791,21.2919,8.1523c.5487.2095,1.1309.331,1.6976.4933Z" transform="translate(-0.0685 -0.24)"/><path class="cls-93" d="M62.8958,77.3108A174.0365,174.0365,0,0,1,79.9634,83.953l-.4785.4693L64.1125,78.5074Z" transform="translate(-0.0685 -0.24)"/><path class="cls-94" d="M64.1125,78.5074l15.3724,5.9149q-.1764.1651-.3532.33c-.3794-.1021-.7695-.1743-1.1358-.3109q-6.3371-2.3616-12.6679-4.74Z" transform="translate(-0.0685 -0.24)"/><path class="cls-95" d="M65.328,79.7016q6.3331,2.3723,12.6679,4.74c.3663.1366.7564.2088,1.1358.3109q-.3715.3635-.7436.7268c-1.91-.7562-3.79-1.6059-5.7391-2.2416-1.8681-.6093-3.5527-1.785-5.5955-1.855Z" transform="translate(-0.0685 -0.24)"/><path class="cls-96" d="M68.9766,7.1846l-1.21.7305a17.5684,17.5684,0,0,1-5.7347-2.1674l.9735-.945A15.24,15.24,0,0,1,68.9766,7.1846Z" transform="translate(-0.0685 -0.24)"/><path class="cls-96" d="M92.6458,16.553q.0105.6044.0209,1.2088L87.126,15.6072,86.68,14.1606C87.3853,13.616,92.05,15.4867,92.6458,16.553Z" transform="translate(-0.0685 -0.24)"/><path class="cls-97" d="M67.0535,81.3827c2.0428.07,3.7274,1.2457,5.5955,1.855,1.9491.6357,3.8289,1.4854,5.7391,2.2416q-.2406.2342-.4815.4681c-1.0053-.3394-2.0031-.7035-3.0173-1.0131-2.1487-.6559-4.0627-2.0168-6.3882-2.1382Z" transform="translate(-0.0685 -0.24)"/><path class="cls-98" d="M59.6848,8.6412l.9025-1.2087,5.3269,1.9434-.994,1.1994Q62.3026,9.6081,59.6848,8.6412Z" transform="translate(-0.0685 -0.24)"/><path class="cls-99" d="M63.473,12.9594q-.3481.86-.6965,1.7187c-1.37-1.2732-3.2467-1.43-4.8385-2.2145q.1453-.4743.2906-.9486C60.2131,11.1323,61.6408,12.7851,63.473,12.9594Z" transform="translate(-0.0685 -0.24)"/><path class="cls-100" d="M68.5011,82.7961c2.3255.1214,4.24,1.4823,6.3882,2.1382,1.0142.31,2.012.6737,3.0173,1.0131q-.3667.3618-.7339.7235c-.7664-.3061-1.5159-.6678-2.3026-.9066-1.6469-.5-3.1171-1.5678-4.9245-1.5492Z" transform="translate(-0.0685 -0.24)"/><path class="cls-101" d="M92.6458,16.553c-.5959-1.0663-5.26-2.937-5.9656-2.3924q-.46-.96-.9207-1.92c1.61.61,3.2017,1.2757,4.84,1.7929.4653.1469,1.0183.9252,1.59.1091Z" transform="translate(-0.0685 -0.24)"/><path class="cls-102" d="M92.667,19.6818q0,.72,0,1.44L87.3976,19.2q-.0031-.72-.0061-1.44Z" transform="translate(-0.0685 -0.24)"/><path class="cls-101" d="M68.9766,7.1846a15.24,15.24,0,0,0-5.9714-2.3819q.7154-.5866,1.43-1.1737A17.1772,17.1772,0,0,0,71.14,6.2434Z" transform="translate(-0.0685 -0.24)"/><path class="cls-103" d="M57.938,12.4636c1.5918.7842,3.4687.9413,4.8385,2.2145q-.1134.4674-.2274.9341l-5.037-1.9272Z" transform="translate(-0.0685 -0.24)"/><path class="cls-104" d="M57.03,16.3241q.1056-.605.2114-1.21c1.6687.8369,3.7505.8084,5.0467,2.4252q-.0006.35-.001.7006Z" transform="translate(-0.0685 -0.24)"/><path class="cls-36" d="M57.03,16.3241,62.2867,18.24a1.7677,1.7677,0,0,1-.4579,1.48c-1.4438-1.1421-3.61-.8576-4.8207-2.46Z" transform="translate(-0.0685 -0.24)"/><path class="cls-105" d="M65.9142,9.3759,60.5873,7.4325l.7432-.95c1.729.8349,3.7653.9863,5.2463,2.3732Z" transform="translate(-0.0685 -0.24)"/><path class="cls-106" d="M57.0081,17.2607c1.21,1.6021,3.3769,1.3176,4.8207,2.46-.1069.5459-.5517.7256-.9862.9164-1.1576-.52-2.194-1.4107-3.596-1.183A2.07,2.07,0,0,1,57.0081,17.2607Z" transform="translate(-0.0685 -0.24)"/><path class="cls-107" d="M69.9456,84.2151c1.8074-.0186,3.2776,1.0493,4.9245,1.5492.7867.2388,1.5362.6,2.3026.9066l-.76.7245c-1.6059-.7787-3.1516-1.7306-5.019-1.7579Z" transform="translate(-0.0685 -0.24)"/><path class="cls-105" d="M92.667,19.6818,87.3915,17.76q-.0013-.228-.0025-.4563l.1718-.7576,5.1061,1.9359Z" transform="translate(-0.0685 -0.24)"/><path class="cls-108" d="M63.473,12.9594c-1.8322-.1743-3.26-1.8271-5.2444-1.4444q.249-.5972.4976-1.1943l5.2376,1.6817Z" transform="translate(-0.0685 -0.24)"/><path class="cls-109" d="M92.19,14.1423c-.572.8161-1.125.0378-1.59-.1091-1.6388-.5172-3.2309-1.1833-4.84-1.7929q-.2619-.4785-.5243-.9569l6.9389,2.634A.8488.8488,0,0,1,92.19,14.1423Z" transform="translate(-0.0685 -0.24)"/><path class="cls-109" d="M71.14,6.2434A17.1772,17.1772,0,0,1,64.4357,3.629q.2335-.1363.4669-.2731,2.8089,1.08,5.6187,2.1589c.366.14.7794.21.8472.7054A.7383.7383,0,0,1,71.14,6.2434Z" transform="translate(-0.0685 -0.24)"/><path class="cls-110" d="M62.2877,17.5394c-1.2962-1.6168-3.378-1.5883-5.0467-2.4252q.0182-.24.0364-.4807a1.1982,1.1982,0,0,1,1.2257.0141c1.3217.5109,2.6672.96,4.0034,1.4325Z" transform="translate(-0.0685 -0.24)"/><path class="cls-111" d="M87.3976,19.2l5.269,1.9218,0,.7183-5.2695-1.92Z" transform="translate(-0.0685 -0.24)"/><path class="cls-111" d="M59.6849,8.6412q2.6176.9671,5.2353,1.9341-.2448.3507-.49.7012L59.36,9.3435Z" transform="translate(-0.0685 -0.24)"/><path class="cls-112" d="M66.5768,8.8562C65.0958,7.4693,63.06,7.3179,61.3305,6.483q.3507-.3675.7013-.7352a17.569,17.569,0,0,0,5.7346,2.1673Z" transform="translate(-0.0685 -0.24)"/><path class="cls-113" d="M92.6669,18.4818l-5.1061-1.9359-.1718.7576q-.1312-.848-.2627-1.6964,2.77,1.0774,5.54,2.1547Q92.6668,18.1218,92.6669,18.4818Z" transform="translate(-0.0685 -0.24)"/><path class="cls-114" d="M87.3974,19.92l5.2695,1.92q0,.36,0,.72l-5.2691-1.92Z" transform="translate(-0.0685 -0.24)"/><path class="cls-114" d="M59.36,9.3435l5.0707,1.933q-.1325.2407-.2647.4817c-1.6512-.7537-3.5123-1.0189-4.9974-2.16Z" transform="translate(-0.0685 -0.24)"/><path class="cls-115" d="M57.2466,19.4538c1.402-.2277,2.4384.6631,3.596,1.183C59.3506,21.14,58.02,21.149,57.2466,19.4538Z" transform="translate(-0.0685 -0.24)"/><path class="cls-116" d="M62.5065,16.08c-1.3362-.4729-2.6817-.9216-4.0034-1.4325a1.1982,1.1982,0,0,0-1.2257-.0141q.1174-.4743.2346-.9486l5.0371,1.9273Q62.5281,15.8462,62.5065,16.08Z" transform="translate(-0.0685 -0.24)"/><path class="cls-117" d="M59.1683,9.5982c1.4851,1.1411,3.3462,1.4063,4.9974,2.16q-.1012.1221-.202.2442l-5.2375-1.6817Q58.9475,9.9594,59.1683,9.5982Z" transform="translate(-0.0685 -0.24)"/><path class="cls-118" d="M87.3975,20.64l5.2691,1.92,0,.48-5.2694-1.92Z" transform="translate(-0.0685 -0.24)"/><path class="cls-119" d="M37.9216,42.96l.196,0,0,.24.0006.72.0041.7222.0116.7088-.0542.0254Q38.0005,44.1685,37.9216,42.96Z" transform="translate(-0.0685 -0.24)"/><path class="cls-27" d="M41.4578,31.1811l-.2354.2579Z" transform="translate(-0.0685 -0.24)"/><path class="cls-29" d="M96.472,67.873l-1.1169,1.0407L77.5951,62.16l.0006-1.68c2.7792,1.0482,5.57,2.0662,8.3345,3.1522C89.4553,65.0171,92.959,66.4569,96.472,67.873Z" transform="translate(-0.0685 -0.24)"/><path class="cls-120" d="M97.9129,66.45l-.9666.9486c-.5309-.2576-1.0469-.5541-1.5951-.767Q86.4775,63.1843,77.595,59.76l.0174-1.2a4.2284,4.2284,0,0,1,.9337.1375c4.2649,1.64,8.5377,3.2618,12.7777,4.9651C93.5355,64.551,95.9293,65.0172,97.9129,66.45Z" transform="translate(-0.0685 -0.24)"/><path class="cls-121" d="M100.8026,63.6187l-.9646.9415a5.9726,5.9726,0,0,0-1.06-.7036c-2.6638-1.0517-5.3175-2.1365-8.019-3.0826-3.5943-1.2587-7.0118-3.0084-10.7419-3.8865q.49-.6029.9806-1.2056c4.9389,1.8884,9.8964,3.73,14.8066,5.691C97.4951,62.0481,99.3791,62.3328,100.8026,63.6187Z" transform="translate(-0.0685 -0.24)"/><path class="cls-40" d="M79.9871,46.2986c2.82.4769,5.3265,1.8542,7.9677,2.8355,6.0667,2.2539,12.0955,4.6105,18.1351,6.9375a6.0643,6.0643,0,0,1,.9121.5455q-.2056.2622-.4114.5246c-6.1539-2.3253-12.298-4.6763-18.4662-6.9621-2.298-.8516-4.4653-2.0937-6.9459-2.42Z" transform="translate(-0.0685 -0.24)"/><path class="cls-122" d="M97.9129,66.45c-1.9836-1.4323-4.3774-1.8985-6.5891-2.787-4.24-1.7033-8.5128-3.3248-12.7777-4.9651a4.2284,4.2284,0,0,0-.9338-.1375q.8208-.4978,1.6419-.9955c3.1113,1.251,6.2371,2.4675,9.33,3.7624,3.4154,1.43,7.0348,2.3537,10.2892,4.18Z" transform="translate(-0.0685 -0.24)"/><path class="cls-48" d="M81.1785,47.7592c2.4806.3267,4.6479,1.5688,6.9459,2.42,6.1682,2.2858,12.3123,4.6368,18.4662,6.9621q-.3712.4913-.7433.9821a2.5822,2.5822,0,0,0-.5612-.4217Q93.8729,53.2837,82.4536,48.881c-.3691-.1427-.5186-.0179-.5639.3353Q81.5342,48.4876,81.1785,47.7592Z" transform="translate(-0.0685 -0.24)"/><path class="cls-50" d="M81.89,49.2164c.0453-.3533.1948-.4781.5639-.3354q11.4153,4.4135,22.8325,8.8211a2.5822,2.5822,0,0,1,.5612.4217q-.2552.3349-.5107.67a8.007,8.007,0,0,0-1.1226-.6482C99.1047,56.1859,94,54.2129,88.8689,52.3128c-2.2338-.8271-4.3447-2.0222-6.7508-2.3544Q82.004,49.5872,81.89,49.2164Z" transform="translate(-0.0685 -0.24)"/><path class="cls-57" d="M82.118,49.9586c2.4062.332,4.5171,1.5271,6.7509,2.3542,5.1312,1.9,10.2358,3.8731,15.3451,5.8324a8.007,8.007,0,0,1,1.1226.6482q-.2195.2538-.439.5074L82.4758,50.6927l-.094.9084-.0055.72-.2024.24Q82.1459,51.26,82.118,49.9586Z" transform="translate(-0.0685 -0.24)"/><path class="cls-58" d="M82.3818,51.6011l.094-.9084,22.4218,8.6081q-.3805.4552-.7613.91c-.1737-.1955-.31-.49-.5266-.5725Q93.0029,55.6011,82.3818,51.6011Z" transform="translate(-0.0685 -0.24)"/><path class="cls-62" d="M82.3818,51.6011q10.6167,4.0116,21.2279,8.0375c.2165.0825.3529.377.5266.5725q-.2351.255-.47.51a5.05,5.05,0,0,0-.8638-.5514q-10.2084-3.9369-20.4262-7.8489Z" transform="translate(-0.0685 -0.24)"/><path class="cls-39" d="M77.5951,62.16l17.76,6.7537q-.3631.358-.7267.7157L77.5957,63.12Z" transform="translate(-0.0685 -0.24)"/><path class="cls-63" d="M82.3763,52.3212q10.2147,3.92,20.4262,7.8489a5.05,5.05,0,0,1,.8638.5514l-.4674.4992L82.1371,53.04l.037-.4787Z" transform="translate(-0.0685 -0.24)"/><path class="cls-64" d="M82.1371,53.04l21.0618,8.1807q-.3537.37-.7077.74a4.17,4.17,0,0,0-.9194-.6954q-9.814-3.7729-19.6439-7.5049Q82.0325,53.4,82.1371,53.04Z" transform="translate(-0.0685 -0.24)"/><path class="cls-70" d="M100.8026,63.6187c-1.4235-1.2859-3.3075-1.5706-4.9984-2.2458-4.91-1.9608-9.8677-3.8026-14.8069-5.6911q.2232-.36.4469-.7207,3.8714,1.5223,7.7423,3.0458,6.1745,2.4449,12.3444,4.9012Z" transform="translate(-0.0685 -0.24)"/><path class="cls-66" d="M81.928,53.7609q9.8246,3.7458,19.6438,7.5049a4.17,4.17,0,0,1,.9194.6954q-.1083.108-.2171.2155c-.3781-.1064-.7665-.1848-1.1324-.3232q-9.7345-3.68-19.4642-7.3726Z" transform="translate(-0.0685 -0.24)"/><path class="cls-71" d="M81.6776,54.4809q9.7313,3.6884,19.4641,7.3726c.3659.1384.7543.2168,1.1324.3232l-.7433.7313q-6.1719-2.451-12.3443-4.9011-3.8677-1.5315-7.7425-3.0458Q81.5607,54.721,81.6776,54.4809Z" transform="translate(-0.0685 -0.24)"/><path class="cls-123" d="M80.0172,56.8875c3.73.8781,7.1474,2.6278,10.7417,3.8865,2.7015.9461,5.3552,2.0309,8.019,3.0826a5.9726,5.9726,0,0,1,1.06.7036l-.4825.4712a3.0377,3.0377,0,0,0-.64-.4743c-3.5016-1.3722-6.999-2.7567-10.52-4.0779-2.8811-1.0812-5.7921-2.0822-8.69-3.1188Z" transform="translate(-0.0685 -0.24)"/><path class="cls-119" d="M79.5055,57.36c2.8977,1.0366,5.8087,2.0376,8.69,3.1188,3.5209,1.3212,7.0183,2.7057,10.52,4.0779a3.0377,3.0377,0,0,1,.64.4743l-.4819.4757c-3.2544-1.8266-6.8738-2.75-10.2892-4.18-3.0931-1.2949-6.2189-2.5114-9.33-3.7623Q79.38,57.4627,79.5055,57.36Z" transform="translate(-0.0685 -0.24)"/><path class="cls-59" d="M92.1924,72.0158l-.7261.7082c-.0979-.1637-.1594-.4244-.2988-.477q-7.4113-2.7957-14.8363-5.5551l.7414-.704c1.2583.4866,2.5217.9605,3.7741,1.4622Q86.523,69.7243,92.1924,72.0158Z" transform="translate(-0.0685 -0.24)"/><path class="cls-124" d="M77.595,59.76q8.8792,3.4324,17.7562,6.871c.5482.2129,1.0642.5094,1.5951.767q-.2371.2374-.4742.4751c-3.5131-1.4163-7.0168-2.8561-10.5419-4.2409-2.7644-1.086-5.5553-2.104-8.3345-3.1522Z" transform="translate(-0.0685 -0.24)"/><path class="cls-72" d="M94.1253,70.1255q-.2418.2379-.4838.4758L77.5971,64.32l-.0012-.72c.3611.1614.7165.3377,1.0843.4818Q86.4013,67.1075,94.1253,70.1255Z" transform="translate(-0.0685 -0.24)"/><path class="cls-125" d="M94.1253,70.1255Q86.4024,67.1048,78.68,64.0818c-.3678-.1441-.7232-.32-1.0843-.4818l0-.48,17.0327,6.5094Q94.377,69.8775,94.1253,70.1255Z" transform="translate(-0.0685 -0.24)"/><path class="cls-73" d="M77.5972,64.32l16.0443,6.2813q-.2409.2376-.482.475L77.5267,65.0221Q77.5622,64.6711,77.5972,64.32Z" transform="translate(-0.0685 -0.24)"/><path class="cls-75" d="M77.5264,65.022,93.16,71.0763q-.2419.2352-.4841.47L77.347,65.5191Z" transform="translate(-0.0685 -0.24)"/><path class="cls-81" d="M90.7433,73.4325c-2.0507-1.4986-4.5459-1.9628-6.8336-2.8982-3.1746-1.298-6.4423-2.3669-9.67-3.5339q.8124-.0319,1.6248-.0636c2.2754.8266,4.5865,1.5677,6.8174,2.5014,2.8424,1.19,5.8825,1.8988,8.5451,3.5235Z" transform="translate(-0.0685 -0.24)"/><path class="cls-79" d="M77.347,65.5191l15.3284,6.0276-.483.469Q86.52,69.7318,80.8467,67.45c-1.2524-.5017-2.5158-.9756-3.774-1.4622Z" transform="translate(-0.0685 -0.24)"/><path class="cls-87" d="M91.2268,72.9617c-2.6626-1.6247-5.7027-2.3338-8.5451-3.5235-2.2309-.9337-4.542-1.6748-6.8172-2.5013q.2335-.1224.4667-.245,7.4207,2.77,14.8363,5.5551c.1394.0526.2009.3133.2988.477Z" transform="translate(-0.0685 -0.24)"/><path class="cls-20" d="M110.8554,48.7668q.0921-.1367.1839-.273Q110.9472,48.63,110.8554,48.7668Z" transform="translate(-0.0685 -0.24)"/><path class="cls-126" d="M87.1552,5.287c-1.5185.0947-2.7484-.7867-4.0827-1.2719-3.0485-1.1083-6.05-2.3472-9.07-3.5331L75.6773.4779l.48-.0029.48-.0043.48-.0067.476,0A17.2282,17.2282,0,0,1,87.1552,5.287Z" transform="translate(-0.0685 -0.24)"/><path class="cls-127" d="M104.6438,27.5913l-8.8763-3.3589A16.2094,16.2094,0,0,1,104.6438,27.5913Z" transform="translate(-0.0685 -0.24)"/><path class="cls-124" d="M69.4918,56.6267l1.4309,1.202q-13.1643-5.03-26.33-10.0588c-2.148-.8194-4.3058-1.613-6.459-2.4185q-.0057-.3544-.0116-.7089c2.0742.8,4.146,1.6074,6.2232,2.4Q56.9174,51.8383,69.4918,56.6267Z" transform="translate(-0.0685 -0.24)"/><path class="cls-125" d="M72.0767,61.4413C66.81,59.45,61.5371,57.4768,56.28,55.4622c-5.8181-2.2294-11.6218-4.4967-17.4316-6.7475.2114-.8367.752-.2565,1.0219-.1532q16.1154,6.1692,32.2083,12.3966Q72.0774,61.2,72.0767,61.4413Z" transform="translate(-0.0685 -0.24)"/><path class="cls-121" d="M67.5557,50.66l-.0241.46L38.3568,39.84c.087-.5378.3976-.4748.7872-.3249q13.8129,5.3162,27.627,10.6294A4.37,4.37,0,0,1,67.5557,50.66Z" transform="translate(-0.0685 -0.24)"/><path class="cls-122" d="M67.7378,53.2794q.2436.72.4873,1.4409Q53.1717,48.96,38.1179,43.2l0-.24q.0016-.48.0034-.959c.1892.0563.3831.1.567.1706Q53.2137,47.7234,67.7378,53.2794Z" transform="translate(-0.0685 -0.24)"/><path class="cls-119" d="M67.7378,53.2794q-14.5245-5.5548-29.05-11.1078c-.1839-.07-.3778-.1143-.567-.1706.2935-1.2689,1.0522-.3077,1.4019-.1752,9.3574,3.545,18.6938,7.146,28.0338,10.7375Q67.6473,52.9214,67.7378,53.2794Z" transform="translate(-0.0685 -0.24)"/><path class="cls-120" d="M38.1179,43.2q15.0537,5.76,30.1072,11.52l.5221.9578L38.1185,43.92Z" transform="translate(-0.0685 -0.24)"/><path class="cls-120" d="M38.1185,43.92,68.7472,55.6781q.3721.4743.7445.9486-12.573-4.7916-25.146-9.5844c-2.0772-.7924-4.149-1.5995-6.2232-2.4Q38.1206,44.2815,38.1185,43.92Z" transform="translate(-0.0685 -0.24)"/></g></svg>