<?xml version="1.0" encoding="utf-8"?>
<!-- Generator: Adobe Illustrator 25.2.1, SVG Export Plug-In . SVG Version: 6.00 Build 0)  -->
<svg version="1.1" id="Layer_1" xmlns="http://www.w3.org/2000/svg" xmlns:xlink="http://www.w3.org/1999/xlink" x="0px" y="0px"
	 viewBox="0 0 25 31.2" style="enable-background:new 0 0 25 31.2;" xml:space="preserve">
<style type="text/css">
	.st0{fill:#FA5FCE;}
</style>
<g>
	<path class="st0" d="M21.5,7h-4.9c1-0.3,1.8-1,2.3-2c0.2-0.5,0.1-1-0.3-1.4c-0.4-0.5-1-0.7-1.7-0.6c-1.8,0.2-3.6,2.5-4.5,3.7
		C11.7,5.4,9.8,3.1,8,2.9C7.4,2.9,6.8,3.1,6.4,3.6C6,4,5.9,4.5,6.1,5c0.5,1,1.3,1.7,2.3,2H3.5C3.2,7,3,7.2,3,7.5v3
		C3,10.8,3.2,11,3.5,11H4v10.5C4,21.8,4.2,22,4.5,22h16c0.3,0,0.5-0.2,0.5-0.5V11h0.5c0.3,0,0.5-0.2,0.5-0.5v-3
		C22,7.2,21.8,7,21.5,7z M17.1,3.9c0,0,0.1,0,0.1,0c0.3,0,0.6,0.1,0.7,0.3C18,4.4,18,4.5,18,4.7c-0.3,0.7-1.6,1.7-4.4,2.2
		C14.5,5.6,15.9,4,17.1,3.9z M7.1,4.7C7,4.5,7,4.4,7.1,4.3C7.3,4,7.5,3.9,7.8,3.9c0,0,0.1,0,0.1,0c1.1,0.1,2.6,1.7,3.5,2.9
		C8.6,6.3,7.3,5.4,7.1,4.7z M14,10h-3V8h3V10z M4,8h6v2H4V8z M5,21V11h5v10H5z M11,21V11h3v10H11z M20,21h-5V11h5V21z M21,10h-6V8h6
		V10z"/>
</g>
</svg>
